<?xml version="1.0" encoding="UTF-8"?><svg xmlns="http://www.w3.org/2000/svg" viewBox="0 0 978.64 122.04"><g id="a"/><g id="b"><g id="c"><g><path d="M2.03,118.15l-1.86-3.54,.17-37.3-.34-3.21,.51-17.05-.34-3.38,.17-27.01-.34-3.04,.51-6.58L0,6.75,1.86,3.21l3.71-1.69,4.73,1.35,3.88,2.87,4.39,4.56,2.7,2.36,4.39,5.23,2.36,2.03,15.36,17.05,3.71,3.38,3.04,3.88,2.36,2.36,2.03,2.87,3.54,1.35,3.04-2.03,10.3-10.47,2.19-2.87,14.85-15.19,2.36-3.04,2.03-1.86,2.19-2.7,7.09-7.43,3.54-2.19,4.9-1.52,3.54,1.86,2.03,3.54-.34,3.21,.17,6.92-.17,2.87,.34,7.26-.17,3.21,.17,16.71-.34,3.71,.34,50.64-.34,3.38,.51,8.78-2.03,4.9-3.54,1.86-20.42-.68-3.54-1.01-1.35-3.88v-2.53l-.34-7.6,.34-3.04-.34-6.25,.34-6.58-.51-6.75,.34-9.28-1.35-2.53-2.19,1.01-6.92,7.09-2.36,1.69-4.73,5.57-2.03,2.03-2.36,2.53-3.38,2.53-3.71-.17-3.54-2.53-4.56-4.39-2.19-2.7-6.92-6.92-2.03-2.53-2.7-2.19-1.69-.68-1.52,1.52v6.58l.34,3.71-.34,6.08,.17,3.54-.51,5.23,.51,17.72-2.03,3.04-4.73,2.03-5.4-.34-3.71,.51-6.58-.34-3.38,.51-3.38-2.19Z"/><path d="M225,119.84l-3.88-1.69-3.38-2.53-1.01-3.04-1.52-3.21-3.21-2.7-3.71-1.86-3.71,.51-3.04-.34-16.54,.17-3.04-.51-7.09,.68-3.21-.51-3.54,1.86-3.21,3.21-3.04,5.57-3.21,3.04-3.88,1.18-9.45,.34-3.38-.34-6.58,.34-3.38-1.01-.84-4.22,1.01-3.38,3.38-6.75,.84-3.04,1.86-2.36,2.53-6.75,3.04-5.4,1.18-3.38,1.69-2.53,1.01-3.71,17.22-36.12,1.01-3.04,1.86-3.21,.84-3.38,1.86-2.53,6.75-15.53,1.52-2.36,1.18-3.38,1.52-2.87,3.04-2.87,5.4-1.86,5.57,1.69,2.87,3.04,3.21,5.91,1.01,3.04,1.86,3.04,1.01,3.38,11.14,23.46,1.18,3.54,3.54,6.25,1.01,2.7,1.52,2.53,1.01,3.71,1.69,3.21,1.69,2.53,6.41,15.36,3.38,6.08,2.36,6.25,4.56,8.78,2.53,6.25,1.18,3.88-.51,4.05-4.73,.84-5.23,.17-3.21-.34-6.41,.51-3.54-.34Zm-28.02-41.86l2.53-1.35,.68-3.04-7.93-18.57-2.36-1.35-1.86,1.52-7.93,18.23,.17,3.21,2.7,1.18,3.88-.34,3.38,.68,6.75-.17Z"/><path d="M264.16,87.94l-.34-3.38,.17-13.67,.34-3.21-.34-3.21v-3.38l-.17-3.71,.51-6.75-.34-3.38-.17-38.65,2.03-4.73,3.04-1.69,9.96-.84,3.71,.17,3.38,.68h3.38l3.04-.84h3.38l3.38,.68h10.13l4.9-.34,5.4,.17,9.62,2.19,6.41,2.19,5.91,3.21,9.62,10.13,1.86,2.7,1.35,2.87,3.04,9.62,.51,3.38,.34,10.63-2.19,9.79-6.58,11.82-2.36,2.03-2.36,2.53-1.52,3.71,.17,4.05,2.03,2.53,5.4,8.78,1.52,3.04,5.74,8.61,1.35,3.21,2.03,2.36,1.86,3.71-1.01,3.71-3.21,1.52-5.57,.17-3.21-.34-13.33,.17-5.74-1.52-3.71-3.04-1.86-2.87-1.35-3.38-1.86-2.53-3.21-6.08-3.54-5.06-1.35-3.04-2.03-3.38-3.38-2.87-9.79-1.35-3.21,1.86-1.52,3.38-.34,10.8,.51,3.54-.34,3.04v5.74l-1.52,4.9-5.4,1.69h-5.06l-2.7,.34-5.4-.51-3.38,.51-4.9-2.19-1.69-5.23v-24.98Zm38.65-30.21l8.1,.34,3.21-.17,4.9-1.18,3.04-1.35,1.86-1.52,1.86-2.53,1.52-3.38,.51-5.06-.68-4.39-1.01-2.7-4.22-5.23-3.21-.84-4.39-.34-4.73-1.01-6.75,.68-3.38-.17-3.54,1.35-1.52,3.21-.34,7.09,.34,2.87v10.13l1.35,2.7,3.38,1.86,3.71-.34Z"/><path d="M464.68,119.84l-3.88-1.69-3.38-2.53-1.01-3.04-1.52-3.21-3.21-2.7-3.71-1.86-3.71,.51-3.04-.34-16.54,.17-3.04-.51-7.09,.68-3.21-.51-3.54,1.86-3.21,3.21-3.04,5.57-3.21,3.04-3.88,1.18-9.45,.34-3.38-.34-6.58,.34-3.38-1.01-.84-4.22,1.01-3.38,3.38-6.75,.84-3.04,1.86-2.36,2.53-6.75,3.04-5.4,1.18-3.38,1.69-2.53,1.01-3.71,17.22-36.12,1.01-3.04,1.86-3.21,.84-3.38,1.86-2.53,6.75-15.53,1.52-2.36,1.18-3.38,1.52-2.87,3.04-2.87,5.4-1.86,5.57,1.69,2.87,3.04,3.21,5.91,1.01,3.04,1.86,3.04,1.01,3.38,11.14,23.46,1.18,3.54,3.54,6.25,1.01,2.7,1.52,2.53,1.01,3.71,1.69,3.21,1.69,2.53,6.41,15.36,3.38,6.08,2.36,6.25,4.56,8.78,2.53,6.25,1.18,3.88-.51,4.05-4.73,.84-5.23,.17-3.21-.34-6.41,.51-3.54-.34Zm-28.02-41.86l2.53-1.35,.68-3.04-7.93-18.57-2.36-1.35-1.86,1.52-7.93,18.23,.17,3.21,2.7,1.18,3.88-.34,3.38,.68,6.75-.17Z"/><path d="M505.35,118.15l-1.86-3.54,.17-37.3-.34-3.21,.51-17.05-.34-3.38,.17-27.01-.34-3.04,.51-6.58-.51-10.3,1.86-3.54,3.71-1.69,4.73,1.35,3.88,2.87,4.39,4.56,2.7,2.36,4.39,5.23,2.36,2.03,15.36,17.05,3.71,3.38,3.04,3.88,2.36,2.36,2.03,2.87,3.54,1.35,3.04-2.03,10.3-10.47,2.19-2.87,14.85-15.19,2.36-3.04,2.03-1.86,2.19-2.7,7.09-7.43,3.54-2.19,4.9-1.52,3.54,1.86,2.03,3.54-.34,3.21,.17,6.92-.17,2.87,.34,7.26-.17,3.21,.17,16.71-.34,3.71,.34,50.64-.34,3.38,.51,8.78-2.03,4.9-3.54,1.86-20.42-.68-3.54-1.01-1.35-3.88v-2.53l-.34-7.6,.34-3.04-.34-6.25,.34-6.58-.51-6.75,.34-9.28-1.35-2.53-2.19,1.01-6.92,7.09-2.36,1.69-4.73,5.57-2.03,2.03-2.36,2.53-3.38,2.53-3.71-.17-3.54-2.53-4.56-4.39-2.19-2.7-6.92-6.92-2.03-2.53-2.7-2.19-1.69-.68-1.52,1.52v6.58l.34,3.71-.34,6.08,.17,3.54-.51,5.23,.51,17.72-2.03,3.04-4.73,2.03-5.4-.34-3.71,.51-6.58-.34-3.38,.51-3.38-2.19Z"/><path d="M689.84,121.53l-14.35-4.22-3.21-1.35-11.48-6.08-2.19-2.53-4.73-4.56-7.93-10.8-1.69-3.04-1.01-3.54-2.53-5.74-1.86-10.63,.68-19.58,1.35-7.26,3.21-9.28,1.52-2.87,5.74-8.44,4.56-5.06,5.4-3.71,2.36-2.03,8.61-5.4,6.41-1.69,3.04-1.35,3.38-1.01,3.38-.67,11.82-.68,7.93,.17,22.11,6.92,8.61,5.4,7.26,6.58,2.19,3.04,2.03,2.03,2.19,2.87,1.18,3.04,3.04,5.57,.84,3.88,1.35,3.54,1.35,6.25,.84,11.65-.84,11.82-.68,3.71-1.01,2.7-.51,3.38-1.18,3.21-6.58,11.65-2.19,3.04-11.82,11.31-15.02,6.75-6.41,2.03-15.02,1.52-10.13-.51Zm15.19-29.54l3.21-.84,3.04-.34,2.7-1.52,3.04-1.35,5.23-4.05,2.03-3.04,1.52-2.53,1.86-2.53,1.52-6.92,1.01-8.44-.68-7.26-1.18-3.04-1.01-3.38-1.35-3.04-3.88-5.74-5.23-3.88-8.95-3.88-8.1-.51-7.76,.68-3.54,.84-3.04,1.52-4.9,3.38-2.53,2.19-2.19,2.7-1.52,2.87-2.03,2.36-1.01,3.04-1.18,6.25-.17,5.06,.84,8.44,3.21,9.45,2.19,2.36,1.69,2.36,5.23,4.56,5.74,3.04,3.04,.34,3.38,1.18,9.79-.34Z"/><path d="M812.72,119.67l-3.38,.51-20.59-.34-3.38,.34-3.38-1.69-1.69-5.23v-8.61l-.34-3.21,.17-94.35,1.52-3.54,3.71-1.52,3.38,.17,3.04-.51,38.48,.34,9.96,1.52,3.54,.84,2.87,1.35,3.38,.68,3.21,1.86,8.61,5.74,8.95,9.96,5.74,8.95,1.35,3.21,2.19,6.41,2.36,13.33,.17,4.9-.51,5.4v3.54l-.51,3.38-1.01,2.87-.68,3.54-.84,3.21-2.7,6.58-2.03,2.7-1.69,3.38-8.27,10.63-11.31,7.6-7.93,3.38-6.92,1.18-4.9,1.52h-3.38l-5.23,.68h-5.06l-6.92-.68Zm11.48-27.18l7.26-.84,4.9-1.52,5.74-3.71,6.25-7.09,2.87-6.25,1.69-11.82-2.7-14.85-1.52-3.04-1.69-2.87-2.53-3.04-2.53-2.36-2.53-1.86-3.04-1.52-6.58-1.86-4.9-.51-7.09,.17-5.4,1.18-1.69,3.88-.34,2.87,.34,23.29-.67,8.44,.67,8.27-.17,6.92,.17,2.87,1.35,3.21,3.88,1.86,3.21,.34,5.06-.17Z"/><path d="M945.72,120.01l-3.38,.34-3.88-.17-3.21-.67-6.92,.51-3.04-.17-3.71,.34-12.15-.17-5.06-2.19-1.35-4.56-.34-3.71,.51-11.65-.51-3.38,.34-3.21,.17-27.34-.51-3.04,.17-13.84,.34-3.21-.51-3.54,.34-16.54-.51-3.71,.51-6.92-.34-6.41,1.86-3.54,3.54-1.35,3.38,.17,3.38-.34,3.04,.34,3.21-.68,3.38,.51,13.84-.34,3.38,.34,2.87-.17,3.38,.34,3.71-.34,13.67-.17,3.04,.68h3.54l3.38,1.35,1.52,3.21,.34,10.13-.17,3.38,.17,3.38-1.69,3.04-3.54,2.03-3.21,.17-24.14-.34-3.21,.68-3.21-.17-3.71,1.35-1.52,3.21v5.23l1.35,5.23,3.54,1.52,9.79-.34,7.09,.51,3.54-.34h9.96l3.88,2.19,1.69,4.73-.51,15.19-1.18,3.38-3.38,1.35-3.88-.17-3.38,.34-6.92-.17-6.41,.34-5.4-.51-5.06,.17-3.04,1.86-1.52,3.54v10.63l1.35,3.04,3.54,1.69,3.71-.34,3.21,.51,3.71-.17,3.38,.34,5.57-.68,8.61,.17,3.21,.51,3.88-.34,3.54,1.52,1.86,3.38v17.05l-1.86,3.54-3.54,1.52-24.14,.34-3.38-.34Z"/></g></g></g></svg>